<svg width="41" height="49" viewBox="0 0 41 49" fill="none" xmlns="http://www.w3.org/2000/svg">
<g id="Union">
<path d="M24.6207 2.49347L20.4872 0L0.798342 11.4399L20.3619 23.2893L26.5513 19.6333L19.3691 15.3217L31.6386 8.11129L27.5052 5.64786L15.0959 12.8339L11.0416 10.345L24.6207 2.49347Z" fill="url(#paint0_linear_90_524)"/>
<path d="M24.6207 2.49347L20.4872 0L0.798342 11.4399L20.3619 23.2893L26.5513 19.6333L19.3691 15.3217L31.6386 8.11129L27.5052 5.64786L15.0959 12.8339L11.0416 10.345L24.6207 2.49347Z" fill="url(#paint1_linear_90_524)"/>
<path d="M14.8397 22.1843L20.2218 25.2901L20.2172 49L13.9377 45.1819L5.26708 27.7572V40.0909L0 36.9506V13.3829L5.52884 16.4393L14.8397 34.0137V22.1843Z" fill="url(#paint2_linear_90_524)"/>
<path d="M14.8397 22.1843L20.2218 25.2901L20.2172 49L13.9377 45.1819L5.26708 27.7572V40.0909L0 36.9506V13.3829L5.52884 16.4393L14.8397 34.0137V22.1843Z" fill="url(#paint3_linear_90_524)"/>
<path d="M41 13.5855L21.8212 24.8095V30.2702L28.5802 26.2771V44.1789L34.0468 41.0749V23.2559L40.9984 19.2223L41 13.5855Z" fill="url(#paint4_linear_90_524)"/>
<path d="M41 13.5855L21.8212 24.8095V30.2702L28.5802 26.2771V44.1789L34.0468 41.0749V23.2559L40.9984 19.2223L41 13.5855Z" fill="url(#paint5_linear_90_524)"/>
</g>
<defs>
<linearGradient id="paint0_linear_90_524" x1="-3.042" y1="2.74569" x2="46.4772" y2="28.6287" gradientUnits="userSpaceOnUse">
<stop offset="0.298144" stop-color="#B97AFA"/>
<stop offset="0.98951" stop-color="#4A34A7"/>
</linearGradient>
<linearGradient id="paint1_linear_90_524" x1="-3.042" y1="2.74569" x2="46.4772" y2="28.6287" gradientUnits="userSpaceOnUse">
<stop offset="0.298144" stop-color="#B97AFA"/>
<stop offset="0.98951" stop-color="#4A34A7"/>
</linearGradient>
<linearGradient id="paint2_linear_90_524" x1="-3.042" y1="2.74569" x2="46.4772" y2="28.6287" gradientUnits="userSpaceOnUse">
<stop offset="0.298144" stop-color="#B97AFA"/>
<stop offset="0.98951" stop-color="#4A34A7"/>
</linearGradient>
<linearGradient id="paint3_linear_90_524" x1="-3.042" y1="2.74569" x2="46.4772" y2="28.6287" gradientUnits="userSpaceOnUse">
<stop offset="0.298144" stop-color="#B97AFA"/>
<stop offset="0.98951" stop-color="#4A34A7"/>
</linearGradient>
<linearGradient id="paint4_linear_90_524" x1="-3.042" y1="2.74569" x2="46.4772" y2="28.6287" gradientUnits="userSpaceOnUse">
<stop offset="0.298144" stop-color="#B97AFA"/>
<stop offset="0.98951" stop-color="#4A34A7"/>
</linearGradient>
<linearGradient id="paint5_linear_90_524" x1="-3.042" y1="2.74569" x2="46.4772" y2="28.6287" gradientUnits="userSpaceOnUse">
<stop offset="0.298144" stop-color="#B97AFA"/>
<stop offset="0.98951" stop-color="#4A34A7"/>
</linearGradient>
</defs>
</svg>
